# xmcd
#
# Track frame offsets:
#	150
#	23256
#	34357
#	48119
#	63545
#	79186
#	95848
#	113258
#	128104
#	144314
#	153937
#	160209
#	168483
#	172966
#	188139
#	192759
#	202972
#	223625
#	243200
#	255602
#	267500
#	286467
#	303741
#	321189
#
# Disc length: 4534 seconds
#
# Revision: 1
# Processed by: cddbd v1.5.1PL0 Copyright (c) Steve Scherf et al.
# Submitted via: audiograbber 1.83.01
#
DISCID=4b11b418
DTITLE=Bee Gees - One Night Only
DYEAR=1998
DGENRE=Ballad
TTITLE0=Intro - You Should Be Dancing/Alone. Live
TTITLE1=Massachusetts. Live
TTITLE2=To Love Somebody. Live
TTITLE3=Words. Live
TTITLE4=Closer Than Close. Live
TTITLE5=Islands In The Stream. Live
TTITLE6=Our Love (Don'T Throw It All Away). Live
TTITLE7=Night Fever/More Than A Woman.Live
TTITLE8=Lonely Days. Live
TTITLE9=New York Mining Disaster 1941. Live
TTITLE10=I Can'T See Nobody. Live
TTITLE11=And The Sun Will Shine. Live
TTITLE12=Nights On Broadway. Live
TTITLE13=How Can You Mend A Broken Heart?. Live
TTITLE14=Heartbreaker. Live
TTITLE15=Guilty. Live
TTITLE16=Inmortality Featturing Celine Dion. Live
TTITLE17=Tragedy. Live
TTITLE18=I Started A Joke. Live
TTITLE19=Grease. Live
TTITLE20=Jive Talkin'. Live
TTITLE21=How Deep Is Your Love. Live
TTITLE22=Stayin' Alive. Live
TTITLE23=You Should Be Dancing.Live
EXTD=
EXTT0=
EXTT1=
EXTT2=
EXTT3=
EXTT4=
EXTT5=
EXTT6=
EXTT7=
EXTT8=
EXTT9=
EXTT10=
EXTT11=
EXTT12=
EXTT13=
EXTT14=
EXTT15=
EXTT16=
EXTT17=
EXTT18=
EXTT19=
EXTT20=
EXTT21=
EXTT22=
EXTT23=
PLAYORDER=
